<svg width="248" height="113" viewBox="0 0 248 113" fill="none" xmlns="http://www.w3.org/2000/svg">
    <path
        d="M234.381 63.1499C233.036 67.4205 231.69 71.3108 230.344 74.8208C228.999 78.3309 227.566 81.5485 226.045 84.4735C224.524 87.4571 222.886 90.1774 221.131 92.6344C219.376 95.15 217.445 97.5193 215.339 99.7423C212.648 102.55 209.869 104.686 207.003 106.148C204.136 107.669 201.269 108.43 198.403 108.43C196.94 108.43 195.478 108.254 194.015 107.903C192.611 107.611 191.295 107.172 190.066 106.587C188.779 106.06 187.668 105.417 186.732 104.656C185.737 103.954 185.035 103.194 184.626 102.375C184.626 101.673 185.035 101.059 185.854 100.532C186.556 101.176 187.141 101.673 187.609 102.024C188.077 102.375 188.545 102.667 189.013 102.901C189.423 103.135 189.891 103.282 190.417 103.34C190.885 103.399 191.441 103.428 192.085 103.428C195.419 103.428 198.666 102.433 201.825 100.444C205.043 98.5138 208.056 95.735 210.864 92.1079C213.73 88.5394 216.333 84.181 218.673 79.0329C221.014 73.9433 223.003 68.2395 224.641 61.9214C223.88 63.0914 222.944 64.5247 221.833 66.2212C220.721 67.9177 219.493 69.6142 218.147 71.3108C216.801 72.9488 215.397 74.4406 213.935 75.7861C212.531 77.1316 211.156 78.0384 209.811 78.5064C208.875 78.4479 207.88 78.2432 206.827 77.8922C205.833 77.5996 204.867 77.1609 203.931 76.5759C203.054 75.9909 202.264 75.2889 201.562 74.4698C200.86 73.6508 200.392 72.7148 200.158 71.6618C200.158 69.9653 200.216 68.6197 200.333 67.6252C200.45 66.5722 200.655 65.4314 200.948 64.2029C201.474 61.9799 202.235 59.4643 203.229 56.6563C204.282 53.8482 205.482 51.0987 206.827 48.4076C208.231 45.6581 209.752 43.1133 211.39 40.7732C213.087 38.3747 214.842 36.5026 216.655 35.1571C217.123 35.1571 217.708 35.2156 218.41 35.3326C219.112 35.3911 219.844 35.5374 220.604 35.7714C221.365 36.0054 222.096 36.2979 222.798 36.6489C223.5 36.9414 224.114 37.3509 224.641 37.8774C223.997 38.4624 222.593 40.4222 220.429 43.7568C218.264 47.0913 215.865 51.8884 213.233 58.148C212.94 58.7915 212.589 59.7276 212.18 60.9561C211.77 62.1846 211.361 63.4716 210.951 64.8172C210.6 66.1627 210.279 67.479 209.986 68.766C209.694 70.053 209.547 71.0768 209.547 71.8373C209.547 72.3053 209.606 72.6563 209.723 72.8903C209.898 73.1243 210.045 73.2998 210.162 73.4168C211.215 73.2413 212.619 72.3931 214.374 70.872C216.129 69.2925 218.118 66.8647 220.341 63.5886C221.745 61.4826 223.032 59.4058 224.202 57.3583C225.372 55.2522 226.513 53.1462 227.624 51.0402C228.794 48.9341 229.993 46.7696 231.222 44.5465C232.451 42.3235 233.767 40.0419 235.171 37.7019C235.931 37.7019 236.75 37.7897 237.628 37.9652C238.505 38.1407 239.354 38.3747 240.173 38.6672C240.992 38.9012 241.694 39.1937 242.279 39.5447C242.922 39.8372 243.39 40.1589 243.683 40.51C241.869 44.371 240.173 48.1444 238.593 51.8299C237.014 55.5155 235.61 59.2888 234.381 63.1499Z"
        fill="#A94D30" />
    <path
        d="M167.398 74.9961C167.691 73.2996 168.188 71.0765 168.89 68.327C169.651 65.5189 170.528 62.5646 171.523 59.4641C172.517 56.305 173.57 53.146 174.682 49.9869C175.793 46.8278 176.876 43.9905 177.929 41.475C178.689 39.6615 179.362 38.2574 179.947 37.2629C180.532 36.2099 181.175 35.3324 181.877 34.6304C182.696 34.7474 183.545 34.9521 184.422 35.2446C185.3 35.5371 186.148 35.8881 186.967 36.2976C187.786 36.7072 188.517 37.1459 189.161 37.6139C189.804 38.0234 190.302 38.4329 190.653 38.8425C189.073 40.7145 187.669 42.8498 186.441 45.2483C185.271 47.6469 184.071 50.7182 182.843 54.4622C186.002 51.6542 188.781 48.9631 191.179 46.3891C193.636 43.815 195.918 40.9485 198.024 37.7894C198.375 37.4969 198.989 37.3507 199.867 37.3507C200.686 37.3507 201.475 37.4969 202.236 37.7894C202.996 38.0234 203.523 38.3744 203.815 38.8425C202.762 41.6505 202.236 44.4293 202.236 47.1789C202.236 49.7529 202.616 51.6834 203.377 52.9705C203.318 53.3215 202.909 53.9942 202.148 54.9888C201.446 55.9833 200.656 56.9193 199.779 57.7968C198.199 56.9778 196.795 55.8663 195.567 54.4622C194.338 52.9997 193.431 51.4202 192.846 49.7237C190.097 51.6542 187.757 53.5555 185.826 55.4275C183.896 57.241 182.228 59.2886 180.824 61.5701C179.479 63.7932 178.309 66.3672 177.314 69.2923C176.378 72.2173 175.472 75.6981 174.594 79.7347C174.068 79.6762 173.424 79.4715 172.664 79.1205C171.962 78.8279 171.23 78.4477 170.47 77.9797C169.768 77.5117 169.124 77.0144 168.539 76.4879C167.954 75.9614 167.574 75.4641 167.398 74.9961Z"
        fill="#A94D30" />
    <path
        d="M168.952 40.4224C168.718 44.0494 168.074 47.1793 167.021 49.8118C165.968 52.3859 164.447 54.6674 162.458 56.6564C160.528 58.587 158.158 60.342 155.35 61.9215C152.542 63.5011 149.266 65.0221 145.522 66.4846C145.522 66.8356 145.493 67.2159 145.434 67.6254C145.434 67.9764 145.434 68.3567 145.434 68.7662C145.434 69.5267 145.493 70.3164 145.61 71.1355C145.727 71.9545 145.932 72.715 146.224 73.417C146.517 74.119 146.926 74.704 147.453 75.172C147.979 75.5815 148.652 75.7863 149.471 75.7863C151.051 75.7863 152.601 75.4353 154.122 74.7333C155.643 74.0313 157.076 73.183 158.422 72.1885C159.826 71.1355 161.113 70.0239 162.283 68.8539C163.511 67.6254 164.594 66.5139 165.53 65.5193C166.115 66.0459 166.612 66.5431 167.021 67.0111C164.389 70.5212 161.493 73.4462 158.334 75.7863C155.233 78.0678 152.279 79.5304 149.471 80.1739C145.434 79.7059 142.275 78.2433 139.994 75.7863C137.771 73.2707 136.659 70.2579 136.659 66.7479C136.659 64.3493 136.981 61.9215 137.625 59.4645C138.327 56.9489 139.263 54.5504 140.433 52.2688C141.661 49.9288 143.065 47.735 144.645 45.6875C146.283 43.6399 148.009 41.8557 149.822 40.3346C151.694 38.8136 153.595 37.6143 155.526 36.7368C157.515 35.8593 159.475 35.4205 161.405 35.4205C164.096 35.7715 166.612 37.4388 168.952 40.4224ZM162.897 43.3182C161.318 43.5522 159.679 44.1957 157.983 45.2487C156.286 46.3017 154.678 47.7058 153.157 49.4608C151.694 51.2158 150.349 53.2634 149.12 55.6034C147.892 57.9435 146.926 60.459 146.224 63.1501C150.904 60.81 154.795 57.9435 157.895 54.5504C160.996 51.0988 162.663 47.3548 162.897 43.3182Z"
        fill="#A94D30" />
    <path
        d="M98.1178 68.5026C98.1178 66.3966 98.6443 63.4716 99.6973 59.7275C100.809 55.9834 102.242 51.8883 103.997 47.4423C105.752 42.9962 107.741 38.4038 109.964 33.6652C112.187 28.9267 114.41 24.5098 116.633 20.4148C118.915 16.3197 121.079 12.7804 123.127 9.79681C125.233 6.81325 127.017 4.79496 128.48 3.74194C129.299 3.80044 130.176 4.15145 131.112 4.79496C132.107 5.43847 133.014 6.22824 133.833 7.16425C134.652 8.04177 135.324 8.97779 135.851 9.97231C136.436 10.9668 136.729 11.8736 136.729 12.6926C134.096 14.7986 131.405 17.519 128.655 20.8535C125.964 24.1296 123.39 27.7566 120.933 31.7347C118.476 35.6543 116.195 39.8371 114.089 44.2832C112.041 48.6708 110.315 52.9999 108.911 57.2704C110.783 54.0529 112.743 51.1278 114.791 48.4953C116.838 45.8627 118.886 43.6104 120.933 41.7384C122.981 39.8664 124.97 38.4331 126.9 37.4386C128.889 36.3855 130.761 35.8298 132.516 35.7713C135.09 37.6433 136.378 40.1296 136.378 43.2302C136.378 45.1022 135.997 47.0035 135.237 48.934C134.476 50.8061 133.452 52.5611 132.165 54.1991C130.937 55.7787 129.504 57.1534 127.866 58.3235C126.286 59.435 124.619 60.1662 122.864 60.5172C123.449 62.5648 124.18 64.6416 125.058 66.7476C125.994 68.8537 127.076 70.9012 128.304 72.8902C129.591 74.8793 131.025 76.722 132.604 78.4186C134.242 80.1151 136.085 81.5484 138.133 82.7184C137.84 83.3034 137.401 83.8884 136.816 84.4734C136.231 85.0585 135.529 85.5557 134.71 85.9652C133.891 86.4332 132.984 86.7842 131.99 87.0182C131.054 87.3108 130.118 87.457 129.182 87.457C127.602 87.457 126.111 86.6672 124.707 85.0877C123.361 83.5082 122.132 81.2266 121.021 78.2431C120.143 75.8445 119.295 72.978 118.476 69.6434C117.657 66.3089 116.926 62.828 116.282 59.201C117.101 58.6745 118.125 57.914 119.354 56.9194C120.582 55.8664 121.869 54.6671 123.215 53.3216C128.363 48.349 130.937 44.0492 130.937 40.4221C130.937 39.9541 130.615 39.7201 129.972 39.7201C128.802 39.7786 127.427 40.3344 125.847 41.3874C124.268 42.4404 122.571 43.9029 120.758 45.775C119.003 47.647 117.189 49.8408 115.317 52.3563C113.504 54.8719 111.749 57.5922 110.052 60.5172C109.35 61.6873 108.706 63.0328 108.121 64.5538C107.536 66.0749 107.01 67.6544 106.542 69.2924C106.132 70.8719 105.811 72.4515 105.577 74.031C105.343 75.6105 105.226 77.0731 105.226 78.4186C105.226 79.2376 105.313 79.9104 105.489 80.4369C103.675 80.2614 102.564 79.7934 102.154 79.0328C101.686 78.3308 101.277 77.7458 100.926 77.2778C100.633 76.8683 100.312 76.5173 99.9606 76.2248C99.4341 75.8153 98.9953 74.9378 98.6443 73.5922C98.2933 72.2467 98.1178 70.5502 98.1178 68.5026Z"
        fill="#A94D30" />
    <path
        d="M90.5075 41.2999C91.0925 41.2999 91.7652 41.4169 92.5258 41.6509C93.3448 41.8264 94.076 42.0896 94.7196 42.4406C95.3631 42.7331 95.8896 43.0549 96.2991 43.4059C96.7671 43.7569 97.0011 44.0787 97.0011 44.3712C95.8311 46.8282 94.7488 49.3145 93.7543 51.8301C92.7598 54.2871 91.9115 56.6564 91.2095 58.9379C90.5075 61.2195 89.9517 63.3548 89.5422 65.3438C89.1912 67.3329 89.0157 69.0586 89.0157 70.5212C89.0157 72.1592 89.1912 73.534 89.5422 74.6455C89.8932 75.6985 90.4782 76.459 91.2972 76.927C90.5952 77.395 89.6885 77.7753 88.5769 78.0678C87.4654 78.3603 86.4709 78.5066 85.5934 78.5066C82.4343 78.5066 80.8548 76.342 80.8548 72.0129C80.8548 68.6784 81.9663 64.1153 84.1894 58.3237C83.0193 61.0147 81.6738 63.5595 80.1528 65.9581C78.6318 68.2981 77.0815 70.3749 75.5019 72.1884C73.9224 74.002 72.3136 75.4938 70.6756 76.6638C69.0961 77.7753 67.6336 78.4481 66.288 78.6821C64.1235 78.5651 62.3685 77.5413 61.0229 75.6108C59.6774 73.6217 59.0046 71.1062 59.0046 68.0641C59.0046 64.7881 59.7067 61.3365 61.1107 57.7094C62.5147 54.0824 64.299 50.7185 66.4635 47.618C68.6866 44.5174 71.0851 41.9434 73.6592 39.8958C76.2332 37.7898 78.7195 36.6783 81.1181 36.5613C81.7031 36.7368 82.3466 37.0878 83.0486 37.6143C83.8091 38.1408 84.5111 38.7551 85.1546 39.4571C85.8566 40.1591 86.4416 40.8904 86.9097 41.6509C87.3777 42.3529 87.6409 42.9671 87.6994 43.4937C85.3594 43.8447 82.9316 44.9854 80.416 46.916C77.959 48.8465 75.7067 51.1866 73.6592 53.9361C71.6701 56.6272 70.0321 59.523 68.7451 62.6235C67.458 65.7241 66.8145 68.6199 66.8145 71.3109C66.8145 72.4224 67.224 73.1245 68.0431 73.417C69.7396 73.066 71.6994 71.6327 73.9224 69.1171C76.1455 66.5431 78.8365 62.5943 81.9956 57.2707C82.5806 56.2176 83.2241 55.0476 83.9261 53.7606C84.6866 52.4736 85.4471 51.1281 86.2076 49.724C86.9682 48.32 87.6994 46.916 88.4014 45.5119C89.1619 44.0494 89.864 42.6454 90.5075 41.2999Z"
        fill="#A94D30" />
    <path
        d="M61.4835 28.4004C61.4835 32.0274 60.489 35.2743 58.5 38.1408C56.511 40.9489 53.7907 43.2889 50.3391 45.1609C52.5621 46.682 54.3172 48.554 55.6042 50.777C56.9497 52.9416 57.6225 55.3401 57.6225 57.9727C57.6225 61.1317 56.6572 64.2615 54.7267 67.3621C52.8546 70.4042 50.3391 73.1245 47.18 75.523C44.021 77.8631 40.4232 79.7643 36.3866 81.2269C32.35 82.6894 28.2257 83.4207 24.0136 83.4207C19.4505 83.4207 15.4432 82.5431 11.9916 80.7881C8.59856 79.0916 5.93676 76.6638 4.00623 73.5047C4.59124 71.7497 5.35175 69.5851 6.28777 67.0111C7.28229 64.3786 8.36456 61.629 9.53458 58.7624C10.7046 55.8374 11.8746 52.9416 13.0446 50.075C14.2732 47.2085 15.4139 44.6344 16.467 42.3529C18.69 37.3803 20.679 33.256 22.4341 29.9799C24.1891 26.7038 25.7979 24.1005 27.2604 22.17C24.0429 23.1645 21.1178 24.3053 18.4852 25.5923C15.8527 26.8208 13.9222 28.0201 12.6936 29.1901C12.1671 28.8391 11.6114 28.3126 11.0264 27.6106C10.4998 26.9086 9.97334 26.1481 9.44683 25.3291C8.97882 24.4516 8.56931 23.574 8.2183 22.6965C7.9258 21.819 7.75029 21.0292 7.69179 20.3272C9.21282 19.2742 11.1726 18.2797 13.5712 17.3437C16.0282 16.3492 18.69 15.5009 21.5566 14.7989C24.4231 14.0969 27.3482 13.5411 30.3317 13.1316C33.3738 12.7221 36.2696 12.5173 39.0191 12.5173C46.0393 12.5173 51.5384 13.9214 55.5164 16.7294C59.4945 19.5375 61.4835 23.4278 61.4835 28.4004ZM28.0502 49.373C26.9387 48.8465 25.9149 48.0567 24.9789 47.0037C23.6333 49.9873 22.3463 52.9123 21.1178 55.7789C19.9478 58.6454 18.8948 61.3072 17.9587 63.7643C17.0227 66.2213 16.2622 68.3566 15.6772 70.1702C15.0922 71.9837 14.7704 73.3 14.7119 74.119C15.5309 74.587 16.4962 74.938 17.6077 75.172C18.7778 75.406 20.211 75.523 21.9076 75.523C25.8856 75.523 29.6882 74.9672 33.3153 73.8557C36.9423 72.7442 40.1306 71.2524 42.8802 69.3804C45.6297 67.4499 47.8235 65.2561 49.4616 62.799C51.0996 60.342 51.9186 57.7679 51.9186 55.0769C51.9186 51.2158 50.2513 48.437 46.9168 46.7405C42.3537 48.6125 37.2056 49.5485 31.4725 49.5485C30.6535 49.5485 30.01 49.5485 29.542 49.5485C29.1324 49.5485 28.6352 49.49 28.0502 49.373ZM45.074 18.9232C43.8455 18.9232 42.5292 19.011 41.1252 19.1865C39.7796 19.3035 38.3464 19.5082 36.8253 19.8007C37.0593 20.0347 37.2348 20.298 37.3518 20.5905C37.5273 20.8245 37.6736 21.0877 37.7906 21.3802C37.2641 22.0823 36.6206 23.106 35.8601 24.4516C35.0996 25.7971 34.2513 27.3766 33.3153 29.1901C32.3793 30.9452 31.3847 32.905 30.3317 35.0695C29.3372 37.234 28.3134 39.4571 27.2604 41.7386C28.2549 41.5046 29.4542 41.3291 30.8582 41.2121C32.3208 41.0366 33.754 40.9489 35.1581 40.9489C35.9186 40.9489 36.6498 40.9781 37.3518 41.0366C38.1124 41.0951 38.8436 41.1829 39.5456 41.2999C42.3537 40.8319 44.8692 40.1591 47.0923 39.2816C49.3738 38.3456 51.3336 37.2925 52.9716 36.1225C54.6097 34.894 55.8674 33.5485 56.745 32.086C57.6225 30.6234 58.0612 29.0731 58.0612 27.4351C58.0612 24.6271 56.9497 22.521 54.7267 21.117C52.5036 19.6545 49.2861 18.9232 45.074 18.9232Z"
        fill="#A94D30" />
    <path fill-rule="evenodd" clip-rule="evenodd"
        d="M199.101 57.4206C198.395 59.5505 197.823 61.531 197.39 63.3572L199.101 57.4206ZM202.337 49.309C202.496 50.8462 202.843 52.0665 203.377 52.9698C203.318 53.3208 202.909 53.9935 202.148 54.9881C201.912 55.3229 201.665 55.6512 201.409 55.9728C201.401 55.9827 201.393 55.9925 201.385 56.0024C200.887 56.6252 200.352 57.2231 199.779 57.7961C199.549 57.6771 199.323 57.5519 199.101 57.4206M202.337 49.309C202.73 48.4576 203.137 47.6118 203.557 46.7715L203.564 46.7577L203.571 46.7439C205.045 43.8558 206.652 41.1646 208.395 38.6755L208.4 38.6682L208.405 38.6609C210.262 36.0361 212.275 33.8534 214.477 32.2198L215.447 31.4999H216.655C217.356 31.4999 218.108 31.58 218.87 31.702C219.812 31.7925 220.751 31.9901 221.679 32.2758C222.592 32.5566 223.475 32.9062 224.327 33.3251C225.411 33.7943 226.386 34.4512 227.226 35.2911L229.937 38.0025L227.1 40.582C227.101 40.5814 227.099 40.5831 227.096 40.5871C227.055 40.6326 226.745 40.9818 226.077 41.9145C225.422 42.8293 224.564 44.1004 223.495 45.7466C221.503 48.8164 219.202 53.3859 216.603 59.5646L216.583 59.6126L216.561 59.6601C216.348 60.1288 216.045 60.9223 215.649 62.1114C215.324 63.0853 214.998 64.0994 214.672 65.154C215.481 64.1401 216.36 62.9423 217.307 61.5468C218.66 59.5164 219.896 57.5215 221.017 55.562C222.17 53.4852 223.295 51.4087 224.391 49.3326L224.409 49.2979L224.428 49.2636C225.597 47.1601 226.794 44.9979 228.022 42.7771C229.273 40.5135 230.611 38.1943 232.035 35.8198L233.101 34.0447H235.171C236.21 34.0447 237.271 34.1642 238.345 34.3789C239.353 34.5806 240.336 34.8485 241.293 35.1842C242.236 35.4615 243.143 35.8247 243.978 36.302C244.827 36.7074 245.761 37.2912 246.492 38.1683L247.982 39.9566L246.992 42.0635C245.195 45.8892 243.516 49.6244 241.954 53.2693C240.422 56.8437 239.059 60.5048 237.867 64.2529C236.503 68.5793 235.134 72.5392 233.758 76.1287C232.372 79.7448 230.886 83.0858 229.296 86.1454C227.706 89.2621 225.982 92.1303 224.118 94.7421C222.262 97.4005 220.22 99.9055 217.993 102.256L217.986 102.264L217.979 102.271C215.069 105.307 211.978 107.709 208.69 109.391C205.374 111.146 201.933 112.085 198.403 112.085C196.663 112.085 194.932 111.878 193.216 111.47C191.596 111.129 190.05 110.618 188.587 109.931C187.095 109.312 185.727 108.533 184.522 107.57C183.232 106.642 182.09 105.478 181.355 104.009L180.969 103.237V102.374C180.969 99.9778 182.457 98.3686 183.877 97.4555L186.248 95.9317L188.325 97.8359C188.986 98.4418 189.472 98.8492 189.803 99.0979C190.116 99.3325 190.398 99.5049 190.649 99.6301L190.739 99.6755L190.782 99.6997C190.791 99.7014 190.804 99.7034 190.821 99.7053L190.846 99.708L190.871 99.7111C191.146 99.7455 191.542 99.7707 192.085 99.7707C194.65 99.7707 197.229 99.0163 199.877 97.3493L199.91 97.3284L199.944 97.3082C202.696 95.6569 205.382 93.2141 207.972 89.8687L207.992 89.8428L208.013 89.8172C210.1 87.2186 212.073 84.1183 213.916 80.492C212.992 81.1069 212.025 81.6065 211.012 81.9589L210.317 82.2006L209.582 82.1547C208.299 82.0745 207.012 81.802 205.732 81.3801C204.421 80.9882 203.174 80.4135 201.993 79.6755L201.948 79.647L201.903 79.6172C200.741 78.8423 199.701 77.9157 198.786 76.8484C197.693 75.5737 196.953 74.0929 196.589 72.454L196.502 72.0622V71.6609C196.502 69.9104 196.56 68.4068 196.701 67.2086C196.837 65.9862 197.07 64.7012 197.39 63.3593M200.333 67.6243C200.216 68.6188 200.158 69.9643 200.158 71.6609C200.392 72.7139 200.86 73.6499 201.562 74.4689C202.264 75.2879 203.054 75.99 203.931 76.575C204.867 77.16 205.832 77.5987 206.827 77.8912C207.88 78.2423 208.874 78.447 209.811 78.5055C211.156 78.0375 212.531 77.1307 213.935 75.7852C213.969 75.7539 214.003 75.7225 214.037 75.691C214.859 74.929 215.663 74.1205 216.449 73.2657C216.462 73.251 216.476 73.2364 216.489 73.2217C216.9 72.7735 217.306 72.3125 217.706 71.8389C217.854 71.6643 218.001 71.4879 218.147 71.3099C219.492 69.6133 220.721 67.9168 221.832 66.2203C222.087 65.8326 222.331 65.4586 222.567 65.0984C222.571 65.0923 222.575 65.0861 222.579 65.08C223.37 63.8717 224.057 62.8185 224.641 61.9204C224.372 62.9548 224.095 63.9728 223.808 64.9742C223.602 65.6916 223.392 66.4005 223.177 67.1009C222.49 69.3359 221.754 71.485 220.969 73.548C220.961 73.5683 220.953 73.5886 220.946 73.6089C220.933 73.6425 220.92 73.6762 220.907 73.7098C220.202 75.5528 219.457 77.3269 218.673 79.032C216.333 84.1801 213.73 88.5384 210.864 92.107C208.055 95.7341 205.043 98.5129 201.825 100.443C198.666 102.432 195.419 103.427 192.085 103.427C192.038 103.427 191.992 103.427 191.946 103.427C191.819 103.426 191.694 103.424 191.574 103.42C191.503 103.418 191.433 103.416 191.364 103.413C191.017 103.399 190.701 103.375 190.417 103.339C189.891 103.281 189.423 103.134 189.013 102.9C188.817 102.802 188.62 102.693 188.423 102.574C188.375 102.545 188.327 102.515 188.279 102.485C188.275 102.483 188.272 102.481 188.268 102.479C188.215 102.444 188.161 102.41 188.107 102.374C187.941 102.264 187.775 102.147 187.609 102.023C187.354 101.831 187.064 101.596 186.739 101.318C186.468 101.086 186.173 100.823 185.854 100.531C185.292 100.893 184.923 101.296 184.746 101.74C184.666 101.943 184.626 102.154 184.626 102.374C184.933 102.988 185.404 103.569 186.039 104.117C186.252 104.3 186.483 104.48 186.732 104.655C187.016 104.886 187.317 105.107 187.633 105.316C187.676 105.344 187.72 105.373 187.763 105.401C188.441 105.837 189.192 106.225 190.014 106.565C190.029 106.57 190.043 106.576 190.057 106.582C190.06 106.583 190.063 106.585 190.066 106.586C190.428 106.758 190.798 106.918 191.175 107.065C192.078 107.417 193.025 107.696 194.015 107.902C195.478 108.253 196.94 108.429 198.403 108.429C201.269 108.429 204.136 107.668 207.002 106.147C209.869 104.685 212.648 102.549 215.339 99.7414C217.445 97.5184 219.375 95.1491 221.13 92.6335C222.886 90.1765 224.524 87.4562 226.045 84.4726C227.566 81.5476 228.999 78.33 230.344 74.8199C231.69 71.3099 233.035 67.4196 234.381 63.149C235.609 59.2879 237.014 55.5146 238.593 51.829C240.173 48.1434 241.869 44.3701 243.683 40.509C243.39 40.158 242.922 39.8363 242.279 39.5438C241.694 39.1928 240.992 38.9003 240.173 38.6663C239.354 38.3738 238.505 38.1398 237.628 37.9643C236.75 37.7887 235.931 37.701 235.171 37.701C233.767 40.041 232.45 42.3226 231.222 44.5456C229.993 46.7687 228.794 48.9332 227.624 51.0392C226.513 53.1453 225.372 55.2513 224.202 57.3574C223.643 58.3353 223.057 59.32 222.445 60.3113C222.418 60.3546 222.392 60.3979 222.365 60.4412C222.207 60.6958 222.048 60.9509 221.886 61.2064C221.421 61.9441 220.94 62.6855 220.445 63.4306C220.41 63.483 220.376 63.5353 220.341 63.5877C220.075 63.9796 219.812 64.3593 219.553 64.7269C218.228 66.6067 216.989 68.1691 215.839 69.4141C215.827 69.4267 215.816 69.4393 215.804 69.4518C215.311 69.9834 214.834 70.4565 214.374 70.8711C213.965 71.2256 213.575 71.5436 213.204 71.825C213.201 71.8273 213.198 71.8296 213.195 71.8318C213.193 71.8334 213.191 71.8349 213.189 71.8364C212.701 72.2059 212.246 72.512 211.824 72.7546C211.196 73.1153 210.642 73.3358 210.162 73.4159C210.045 73.2989 209.898 73.1234 209.723 72.8894C209.606 72.6554 209.547 72.3044 209.547 71.8364C209.547 71.4417 209.587 70.976 209.665 70.4395C209.7 70.2061 209.741 69.9594 209.791 69.6992C209.846 69.405 209.911 69.0936 209.986 68.7651C210.279 67.4781 210.6 66.1618 210.951 64.8163C211.361 63.4707 211.77 62.1837 212.18 60.9552C212.589 59.7267 212.94 58.7906 213.233 58.1471C215.865 51.8875 218.264 47.0904 220.428 43.7559C222.387 40.7388 223.723 38.8472 224.436 38.081C224.511 38.0004 224.579 37.9322 224.641 37.8765C224.114 37.35 223.5 36.9405 222.798 36.648C222.335 36.4168 221.86 36.211 221.373 36.0306C221.12 35.937 220.864 35.8503 220.604 35.7705C219.843 35.5365 219.112 35.3902 218.41 35.3317C217.708 35.2147 217.123 35.1562 216.655 35.1562C214.842 36.5017 213.087 38.3738 211.39 40.7723C209.752 43.1123 208.231 45.6571 206.827 48.4067C205.481 51.0977 204.282 53.8473 203.229 56.6553C202.235 59.4634 201.474 61.9789 200.948 64.202C200.655 65.4305 200.45 66.5713 200.333 67.6243Z"
        fill="white" />
    <path fill-rule="evenodd" clip-rule="evenodd"
        d="M164.757 69.8108C164.339 71.5672 164.016 73.0921 163.795 74.3743L163.627 75.3512L163.975 76.2794C164.442 77.5242 165.298 78.4891 166.093 79.2051C166.818 79.8578 167.603 80.4624 168.441 81.0214L168.497 81.0582L168.553 81.0931C169.429 81.6317 170.309 82.0954 171.194 82.4684C172.113 82.8879 173.138 83.2512 174.19 83.3681L177.467 83.7322L178.167 80.5109C179.024 76.5673 179.899 73.2154 180.786 70.4379C181.707 67.7361 182.767 65.4239 183.945 63.4744C185.18 61.4697 186.641 59.6784 188.33 58.0919L188.351 58.072L188.371 58.0518C189.317 57.1353 190.383 56.1984 191.573 55.2419C191.941 55.7807 192.34 56.3046 192.767 56.8134L192.791 56.8416L192.815 56.8694C194.329 58.6002 196.091 60.0028 198.096 61.0422L200.472 62.2742L201.834 60.9122C201.913 60.6444 201.996 60.3733 202.081 60.0988C202.421 59.0045 202.804 57.8568 203.229 56.6555C203.311 56.438 203.393 56.2209 203.476 56.0041C203.484 55.9836 203.492 55.9631 203.5 55.9426C203.858 55.0144 204.231 54.0926 204.621 53.1773C204.802 52.7528 204.986 52.3297 205.173 51.908C205.477 51.2252 205.79 50.546 206.112 49.8704C205.985 49.2338 205.892 48.3575 205.892 47.1783C205.892 44.9053 206.326 42.5605 207.239 40.1257L207.873 38.4351L206.916 36.904C206.019 35.4695 204.642 34.7247 203.434 34.3332C202.287 33.9074 201.091 33.6938 199.866 33.6938C198.814 33.6938 197.072 33.8227 195.683 34.98L195.276 35.3195L194.981 35.7607C194.666 36.2336 194.347 36.6991 194.024 37.1572L193.429 36.4624C192.793 35.7214 192.019 35.1076 191.22 34.5905C190.416 34.0143 189.539 33.4954 188.602 33.0268C187.627 32.5391 186.618 32.1221 185.578 31.7754C184.517 31.4215 183.454 31.1617 182.394 31.0103L180.585 30.7517L179.292 32.0444C178.315 33.0215 177.484 34.1742 176.772 35.4479C176.073 36.6433 175.335 38.2054 174.557 40.0605L174.556 40.0626C173.47 42.6562 172.363 45.5613 171.233 48.7728C170.109 51.9663 169.044 55.1605 168.038 58.3553C167.216 60.919 166.471 63.3901 165.803 65.7683C166.271 66.2029 166.677 66.6169 167.021 67.0102C166.852 67.2364 166.681 67.4602 166.509 67.6816C166.501 67.6918 166.493 67.7021 166.485 67.7124C165.921 68.438 165.345 69.1375 164.757 69.8108ZM179.947 37.2624C179.362 38.2569 178.689 39.6609 177.928 41.4744C176.875 43.99 175.793 46.8273 174.682 49.9864C173.57 53.1454 172.517 56.3045 171.523 59.4635C170.528 62.5641 169.651 65.5184 168.89 68.3264C168.188 71.076 167.691 73.299 167.398 74.9956C167.574 75.4636 167.954 75.9608 168.539 76.4874C169.124 77.0139 169.768 77.5111 170.47 77.9791C170.698 78.1199 170.925 78.2528 171.148 78.3777C171.668 78.668 172.173 78.9154 172.663 79.1199C173.072 79.3083 173.446 79.4546 173.787 79.5588C174.081 79.6486 174.35 79.7071 174.594 79.7342C175.471 75.6976 176.378 72.2168 177.314 69.2917C178.309 66.3667 179.479 63.7926 180.824 61.5696C181.029 61.2372 181.239 60.9099 181.455 60.5875C182.423 59.1406 183.503 57.7936 184.696 56.5467C185.059 56.1676 185.432 55.7978 185.815 55.4371C185.819 55.4337 185.823 55.4303 185.826 55.427C186.085 55.1755 186.352 54.9235 186.626 54.671C187.592 53.7817 188.648 52.8859 189.797 51.9835C190.75 51.2345 191.767 50.4811 192.846 49.7231C192.865 49.7778 192.884 49.8323 192.904 49.8867C193.298 50.9858 193.828 52.0354 194.495 53.0354C194.82 53.5226 195.177 53.998 195.567 54.4617C196.795 55.8657 198.199 56.9772 199.779 57.7963C200.656 56.9187 201.446 55.9827 202.148 54.9882C202.908 53.9937 203.318 53.3209 203.376 52.9699C202.616 51.6829 202.236 49.7524 202.236 47.1783C202.236 44.4288 202.762 41.65 203.815 38.8419C203.523 38.3739 202.996 38.0229 202.236 37.7889C201.475 37.4964 200.685 37.3501 199.866 37.3501C198.989 37.3501 198.375 37.4964 198.024 37.7889C195.918 40.9479 193.636 43.8145 191.179 46.3885C191.145 46.4249 191.111 46.4613 191.077 46.4977C190.983 46.5982 190.889 46.6988 190.794 46.7996C190.163 47.4687 189.506 48.1457 188.824 48.8304C187.329 50.3327 185.71 51.8727 183.969 53.4504C183.959 53.4601 183.948 53.4697 183.938 53.4793C183.578 53.8052 183.213 54.1326 182.843 54.4617C183.019 53.925 183.194 53.4021 183.369 52.8931C183.376 52.8731 183.383 52.8532 183.39 52.8333C183.413 52.765 183.437 52.6969 183.46 52.6292C184.235 50.3915 184.999 48.4261 185.75 46.7329C185.981 46.2121 186.211 45.7171 186.44 45.2478C187.669 42.8492 189.073 40.7139 190.652 38.8419C190.33 38.4658 189.884 38.0896 189.315 37.7135C189.265 37.6801 189.213 37.6468 189.161 37.6134C188.714 37.2884 188.225 36.9775 187.693 36.6808C187.459 36.5502 187.217 36.4223 186.967 36.2971C186.148 35.8876 185.3 35.5366 184.422 35.2441C183.545 34.9516 182.696 34.7468 181.877 34.6298C181.175 35.3318 180.532 36.2094 179.947 37.2624Z"
        fill="white" />
    <path fill-rule="evenodd" clip-rule="evenodd"
        d="M167.021 49.8109C168.074 47.1783 168.718 44.0485 168.952 40.4215C166.612 37.4379 164.096 35.7706 161.405 35.4196C159.475 35.4196 157.515 35.8584 155.526 36.7359C153.595 37.6134 151.694 38.8127 149.822 40.3337C148.008 41.8547 146.283 43.639 144.645 45.6866C143.065 47.7341 141.661 49.9279 140.433 52.2679C139.263 54.5495 138.327 56.948 137.625 59.4636C136.981 61.9206 136.659 64.3484 136.659 66.747C136.659 70.257 137.771 73.2698 139.994 75.7854C142.275 78.2424 145.434 79.705 149.471 80.173C150.573 79.9204 151.698 79.5417 152.845 79.0368C153.711 78.6557 154.59 78.2026 155.481 77.6778C156.418 77.1263 157.369 76.4955 158.334 75.7854C158.922 75.3499 159.501 74.8941 160.07 74.4181C160.075 74.4139 160.08 74.4098 160.085 74.4056C161.457 73.2584 162.775 71.9937 164.041 70.6115C165.069 69.4886 166.063 68.2882 167.021 67.0102C166.797 66.7536 166.546 66.4882 166.269 66.2139C166.04 65.9881 165.794 65.7562 165.53 65.5184C165.462 65.5906 165.393 65.6634 165.323 65.7368C164.436 66.6749 163.422 67.7136 162.283 68.853C161.113 70.023 159.826 71.1345 158.422 72.1876C157.829 72.6259 157.219 73.0358 156.591 73.4173C156.589 73.419 156.586 73.4206 156.583 73.4222C155.79 73.9044 154.97 74.3411 154.122 74.7324C153.315 75.1049 152.499 75.3786 151.675 75.5535C150.947 75.7081 150.212 75.7854 149.471 75.7854C148.652 75.7854 147.979 75.5806 147.453 75.1711C146.926 74.7031 146.517 74.1181 146.224 73.4161C145.932 72.7141 145.727 71.9536 145.61 71.1345C145.493 70.3155 145.434 69.5258 145.434 68.7652V67.6245C145.493 67.215 145.522 66.8347 145.522 66.4837C146.195 66.221 146.852 65.9564 147.495 65.6899C150.146 64.5899 152.54 63.4578 154.677 62.2936C154.904 62.1696 155.129 62.0453 155.35 61.9206C158.158 60.3411 160.528 58.5861 162.458 56.6555C164.447 54.6665 165.968 52.3849 167.021 49.8109ZM150.931 60.4442C149.462 61.4129 147.893 62.3145 146.224 63.1491C146.312 62.8107 146.405 62.4751 146.502 62.1422C146.918 60.706 147.413 59.3214 147.985 57.9884C148.334 57.1738 148.713 56.3785 149.12 55.6025C150.349 53.2625 151.694 51.2149 153.157 49.4599C154.678 47.7049 156.286 46.3008 157.983 45.2478C158.348 45.0215 158.709 44.8141 159.069 44.6256C160.381 43.9371 161.657 43.501 162.897 43.3173C162.819 44.6581 162.583 45.9667 162.189 47.243C161.397 49.809 159.966 52.2444 157.895 54.5495C156.361 56.2281 154.634 57.7779 152.714 59.1988C152.137 59.6255 151.542 60.0407 150.931 60.4442ZM149.093 68.985C152.058 67.7472 154.745 66.4561 157.143 65.1074C160.191 63.393 162.84 61.445 165.044 59.2409C167.372 56.9126 169.166 54.224 170.405 51.1953L170.411 51.1821L170.416 51.1688C171.646 48.0932 172.348 44.5662 172.601 40.6569L172.69 39.2636L171.829 38.165C169.135 34.731 165.843 32.3111 161.878 31.794L161.643 31.7633H161.405C158.906 31.7633 156.445 32.3339 154.05 33.3907L154.031 33.3989L154.013 33.4073C151.762 34.4302 149.598 35.8046 147.516 37.496L147.494 37.514L147.472 37.5323C145.455 39.2242 143.563 41.1862 141.79 43.4025L141.769 43.4277L141.75 43.4533C140.038 45.6721 138.52 48.045 137.195 50.5684L137.187 50.5839L137.179 50.5995C135.895 53.104 134.87 55.7326 134.103 58.4808L134.095 58.5089L134.087 58.5372C133.369 61.2789 133.003 64.0179 133.003 66.747C133.003 71.1044 134.412 74.9902 137.254 78.2066L137.284 78.2403L137.314 78.2733C140.307 81.4966 144.339 83.2588 149.05 83.805L149.675 83.8774L150.288 83.7369C153.718 82.9508 157.126 81.214 160.501 78.7303L160.51 78.7234C163.25 76.6942 165.782 74.2844 168.114 71.5121C168.332 70.5631 168.585 69.5252 168.872 68.3981C168.878 68.3743 168.884 68.3504 168.89 68.3265C169.206 67.1587 169.543 65.9657 169.9 64.7473L169.773 64.6025C169.247 64.001 168.642 63.4002 167.975 62.8007L165.318 60.4087L162.867 63.0125C161.962 63.9741 160.906 65.0585 159.697 66.2676C158.659 67.3055 157.508 68.3021 156.237 69.2553C155.096 70.0982 153.881 70.8167 152.59 71.4126C151.583 71.8772 150.612 72.1017 149.653 72.1267C149.635 72.0913 149.617 72.0524 149.599 72.0098C149.435 71.6164 149.307 71.1575 149.229 70.6175C149.147 70.0388 149.103 69.4953 149.093 68.985Z"
        fill="white" />
    <path fill-rule="evenodd" clip-rule="evenodd"
        d="M96.1847 58.7117L96.1922 58.6864C97.3398 54.8207 98.8103 50.6234 100.596 46.0993C102.382 41.5758 104.402 36.9132 106.654 32.1118C108.904 27.3162 111.159 22.8349 113.42 18.6698L113.43 18.6522L113.439 18.6347C115.761 14.4677 117.985 10.8271 120.112 7.72739L120.126 7.70748L120.14 7.68775C122.291 4.64076 124.363 2.20041 126.343 0.774199L127.419 0L128.74 0.0944001C130.392 0.212402 131.874 0.888827 133.141 1.75195C134.401 2.5729 135.535 3.56508 136.546 4.712C137.534 5.77756 138.373 6.93652 139.044 8.18992C139.811 9.51177 140.385 11.0378 140.385 12.6921V14.4494L139.013 15.5472C136.623 17.4586 134.109 19.9863 131.478 23.1768C128.902 26.3134 126.423 29.8041 124.044 33.6556L124.038 33.6659L124.031 33.6762C123.64 34.3003 123.253 34.9317 122.871 35.5702C123.646 35.06 124.425 34.6013 125.207 34.1972C127.548 32.9607 129.957 32.1977 132.395 32.1165L133.651 32.0746L134.667 32.8138C138.157 35.3523 140.034 38.9231 140.034 43.2297C140.034 45.6076 139.549 47.9625 138.639 50.2737L138.631 50.2917L138.624 50.3097C137.732 52.505 136.536 54.5531 135.047 56.4493C133.601 58.3071 131.913 59.9255 129.991 61.2982L129.98 61.3057L129.97 61.3131C129.157 61.8848 128.315 62.3827 127.445 62.8023C127.743 63.6278 128.067 64.4607 128.416 65.3011C129.275 67.2292 130.268 69.1072 131.395 70.9354C132.556 72.7269 133.844 74.3812 135.257 75.902C136.649 77.3389 138.209 78.5506 139.947 79.5433L142.95 81.2594L141.403 84.3531C140.895 85.3685 140.194 86.2656 139.402 87.0583C138.534 87.9255 137.533 88.6299 136.436 89.1894C135.349 89.7989 134.182 90.2463 132.954 90.5465C131.722 90.9187 130.461 91.1128 129.182 91.1128C126.237 91.1128 123.825 89.599 121.974 87.5163L121.948 87.4875L121.923 87.4582C120.194 85.4289 118.784 82.7117 117.595 79.519L117.591 79.5089L117.587 79.4988C116.651 76.9401 115.766 73.9386 114.925 70.515C114.284 67.9054 113.697 65.2132 113.163 62.4386C112.597 63.3884 112.05 64.5246 111.534 65.8659C110.995 67.2679 110.506 68.7299 110.07 70.2528C109.698 71.6947 109.406 73.1325 109.193 74.5663C108.981 76.0002 108.882 77.2813 108.882 78.4181C108.882 78.7006 108.897 78.9126 108.917 79.064C108.936 79.212 108.957 79.2771 108.958 79.2801L108.958 79.2801L110.737 84.6176L105.137 84.0757C104.03 83.9686 102.898 83.7538 101.876 83.3235C100.902 82.9132 99.7821 82.1985 99.0456 80.9609C98.6299 80.3401 98.2829 79.8473 98.0007 79.4711L97.9752 79.4371L97.9505 79.4025C97.831 79.2352 97.7252 79.1243 97.6401 79.0504C96.1345 77.834 95.4734 75.9217 95.1063 74.5147C94.6492 72.7624 94.4614 70.7291 94.4614 68.5021C94.4614 65.8897 95.0966 62.5802 96.1775 58.737L96.1847 58.7117ZM99.9605 76.2243C100.312 76.5168 100.633 76.8678 100.926 77.2773C101.122 77.5393 101.337 77.8381 101.57 78.1735C101.626 78.2529 101.682 78.3345 101.739 78.4181C101.872 78.6118 102.01 78.8165 102.154 79.0323C102.564 79.7928 103.675 80.2608 105.489 80.4364C105.313 79.9099 105.226 79.2371 105.226 78.4181C105.226 78.0751 105.233 77.7245 105.248 77.3663C105.252 77.2818 105.256 77.1968 105.26 77.1114C105.261 77.1079 105.261 77.1044 105.261 77.1009C105.268 76.9764 105.275 76.851 105.283 76.7247C105.34 75.868 105.437 74.97 105.577 74.0305C105.811 72.451 106.132 70.8714 106.542 69.2919C107.01 67.6539 107.536 66.0743 108.121 64.5533C108.706 63.0323 109.35 61.6868 110.052 60.5167C110.411 59.8981 110.772 59.2887 111.136 58.6884C111.155 58.6578 111.173 58.6273 111.192 58.5968C111.29 58.436 111.387 58.2758 111.486 58.1163C112.208 56.9426 112.94 55.8047 113.682 54.7024C114.222 53.9014 114.767 53.1192 115.317 52.3558C115.875 51.6065 116.427 50.8857 116.975 50.1934C118.264 48.5618 119.525 47.0888 120.758 45.7745C121.458 45.0511 122.142 44.3889 122.807 43.7879C123.865 42.8334 124.878 42.033 125.847 41.3869C126.345 41.0552 126.822 40.7729 127.279 40.5399C127.28 40.5392 127.282 40.5384 127.283 40.5377C127.362 40.4975 127.44 40.4588 127.518 40.4216C127.776 40.298 128.027 40.1905 128.271 40.0993C128.282 40.0954 128.292 40.0915 128.303 40.0876C128.899 39.8681 129.455 39.7454 129.972 39.7196C130.216 39.7196 130.415 39.7535 130.566 39.8212C130.813 39.9315 130.937 40.1317 130.937 40.4216C130.937 44.0487 128.363 48.3485 123.215 53.3211C121.869 54.6666 120.582 55.8659 119.354 56.9189C119.018 57.1909 118.697 57.4454 118.392 57.6824C118.353 57.7123 118.315 57.742 118.277 57.7713C117.514 58.3598 116.849 58.8361 116.282 59.2005C116.926 62.8275 117.657 66.3083 118.476 69.6429C119.295 72.9775 120.143 75.844 121.021 78.2426C122.132 81.2261 123.361 83.5077 124.706 85.0872C126.111 86.6667 127.602 87.4565 129.182 87.4565C130.118 87.4565 131.054 87.3102 131.99 87.0177C132.984 86.7837 133.891 86.4327 134.71 85.9647C135.02 85.8097 135.314 85.6421 135.59 85.4619C136.044 85.1661 136.453 84.8365 136.816 84.4729C137.234 84.0551 137.577 83.6372 137.846 83.2193C137.953 83.0522 138.049 82.885 138.132 82.7179C136.085 81.5479 134.242 80.1146 132.604 78.4181C131.025 76.7215 129.591 74.8788 128.304 72.8897C127.076 70.9007 125.994 68.8531 125.058 66.7471C124.676 65.8304 124.321 64.9192 123.995 64.0135C123.571 62.8386 123.194 61.673 122.864 60.5167C123.515 60.3865 124.154 60.2038 124.781 59.9688C125.844 59.5706 126.872 59.0219 127.866 58.3229C129.504 57.1529 130.937 55.7781 132.165 54.1986C133.452 52.5606 134.476 50.8056 135.237 48.9335C135.997 47.003 136.377 45.1017 136.377 43.2297C136.377 40.1291 135.09 37.6428 132.516 35.7708C131.819 35.794 131.103 35.8958 130.368 36.0762C130.237 36.1085 130.104 36.1434 129.972 36.1807C129.914 36.1971 129.855 36.2139 129.797 36.2311C128.861 36.509 127.895 36.9113 126.9 37.4381C126.038 37.8823 125.164 38.4141 124.278 39.0334C123.181 39.8005 122.066 40.702 120.933 41.7379C120.213 42.3959 119.494 43.1009 118.774 43.8529C118.764 43.8637 118.753 43.8746 118.743 43.8855C118.462 44.1794 118.181 44.4804 117.901 44.7886C117.633 45.0818 117.366 45.3815 117.099 45.6877C117.095 45.6926 117.091 45.6976 117.086 45.7026C116.321 46.5802 115.556 47.5109 114.791 48.4948C114.229 49.2164 113.675 49.96 113.127 50.7256C113.118 50.7368 113.11 50.748 113.102 50.7593C111.66 52.7771 110.263 54.9473 108.911 57.2699C109.375 55.8607 109.873 54.445 110.406 53.023C111.155 51.0259 111.974 49.0162 112.861 46.994C113.256 46.0927 113.666 45.1889 114.089 44.2827C114.337 43.7589 114.587 43.2388 114.84 42.7223C116.735 38.8547 118.766 35.192 120.933 31.7342C123.39 27.7561 125.964 24.1291 128.655 20.853C131.405 17.5184 134.096 14.7981 136.728 12.6921C136.728 11.8731 136.436 10.9663 135.851 9.97179C135.324 8.97727 134.652 8.04125 133.833 7.16374C133.014 6.22772 132.107 5.43796 131.112 4.79444C130.176 4.15093 129.299 3.79993 128.48 3.74143C127.017 4.79445 125.233 6.81274 123.127 9.79629C121.079 12.7798 118.915 16.3192 116.633 20.4142C114.41 24.5093 112.187 28.9261 109.964 33.6647C107.741 38.4033 105.752 42.9957 103.997 47.4417C102.242 51.8878 100.809 55.9829 99.6973 59.727C98.6443 63.471 98.1177 66.3961 98.1177 68.5021C98.1177 70.5497 98.2932 72.2462 98.6443 73.5917C98.9953 74.9373 99.434 75.8148 99.9605 76.2243Z"
        fill="white" />
    <path fill-rule="evenodd" clip-rule="evenodd"
        d="M55.4137 66.1818C55.3701 66.8116 55.3481 67.4388 55.3481 68.0635C55.3481 71.6412 56.1427 74.9216 57.9943 77.6588L58.0086 77.6799L58.0231 77.7008C59.9492 80.4643 62.6952 82.1489 66.0905 82.3324L66.5052 82.3548L66.9143 82.2837C68.9645 81.9271 70.9292 80.9554 72.7796 79.6533L72.7901 79.6459L72.8006 79.6384C74.4435 78.4649 76.0168 77.046 77.5269 75.4067C77.8091 76.7165 78.2979 77.9582 79.0857 79.0378C80.6927 81.24 83.0833 82.1622 85.5932 82.1622C86.8643 82.1622 88.18 81.9524 89.5073 81.6031C90.8778 81.2424 92.19 80.7255 93.3252 79.9686L98.2477 76.687L93.1346 73.7653C93.1165 73.7386 93.0713 73.6639 93.0191 73.5133C92.8206 72.8696 92.6718 71.9019 92.6718 70.5205C92.6718 69.345 92.8132 67.8583 93.1338 66.0295C93.5153 64.1861 94.0366 62.1816 94.7039 60.0126C95.3719 57.8416 96.1839 55.5715 97.1433 53.2012L97.1489 53.1875L97.1543 53.1737C98.1182 50.7356 99.1674 48.3252 100.302 45.9425L100.657 45.1966V44.3705C100.657 43.2168 100.193 42.324 99.7824 41.7593C99.4075 41.2438 98.969 40.8476 98.5878 40.5526C97.906 39.9852 97.1389 39.5333 96.3497 39.1654C95.4379 38.6834 94.4624 38.3394 93.4487 38.1097C92.5016 37.8296 91.5075 37.6429 90.5073 37.6429H88.4662C88.2509 37.3993 88.0272 37.1607 87.7957 36.9271C87.0036 36.0712 86.1337 35.3089 85.1863 34.6469C84.2914 33.9823 83.2799 33.3919 82.1685 33.0585L81.567 32.8781L80.9397 32.9086C77.5163 33.0756 74.3099 34.6432 71.3635 37.0492C68.4943 39.3348 65.8758 42.1619 63.4919 45.4868L63.4785 45.5055L63.4653 45.5244C61.1283 48.872 59.2075 52.4964 57.7007 56.3889C57.6569 56.5022 57.6136 56.6155 57.5709 56.7287C57.6052 57.1372 57.6224 57.5516 57.6224 57.972C57.6224 60.7309 56.8862 63.4675 55.4137 66.1818ZM73.659 39.8952C71.0849 41.9427 68.6864 44.5168 66.4633 47.6173C64.2988 50.7179 62.5145 54.0817 61.1105 57.7088C59.7065 61.3358 59.0045 64.7874 59.0045 68.0635C59.0045 71.1055 59.6772 73.6211 61.0228 75.6101C62.3683 77.5406 64.1233 78.5644 66.2879 78.6814C67.6334 78.4474 69.0959 77.7747 70.6754 76.6631C71.0819 76.3728 71.4867 76.0626 71.8896 75.7326C73.1102 74.7328 74.3142 73.5513 75.5018 72.1878C75.7732 71.8762 76.0437 71.5568 76.3134 71.2296C76.3211 71.2203 76.3288 71.2109 76.3365 71.2016C76.6583 70.8106 76.9788 70.4086 77.2981 69.9955C78.2608 68.7501 79.2123 67.4041 80.1526 65.9574C81.6364 63.6177 82.9531 61.1387 84.1029 58.5206C84.1122 58.4992 84.1216 58.4778 84.131 58.4564C84.1504 58.412 84.1698 58.3675 84.1892 58.323C84.1717 58.3687 84.1542 58.4142 84.1368 58.4597C84.1284 58.4818 84.12 58.5038 84.1116 58.5258C83.4078 60.3719 82.8181 62.0919 82.3424 63.6859C82.0122 64.7922 81.737 65.8377 81.5168 66.8225C81.5154 66.8288 81.514 66.8351 81.5126 66.8414C81.1391 68.5155 80.9246 70.0138 80.8691 71.3363C80.8595 71.567 80.8546 71.7923 80.8546 72.0123C80.8546 76.3414 82.4341 78.5059 85.5932 78.5059C86.1538 78.5059 86.7621 78.4462 87.4182 78.3268C87.7891 78.2594 88.1753 78.1728 88.5768 78.0672C89.6883 77.7747 90.595 77.3944 91.2971 76.9264C90.478 76.4584 89.893 75.6979 89.542 74.6448C89.4813 74.4525 89.4258 74.2523 89.3756 74.0441C89.1355 73.0496 89.0155 71.8751 89.0155 70.5205C89.0155 69.058 89.191 67.3322 89.542 65.3432C89.9515 63.3541 90.5073 61.2188 91.2093 58.9373C91.9113 56.6558 92.7596 54.2865 93.7541 51.8294C94.7486 49.3139 95.8309 46.8276 97.0009 44.3705C97.0009 44.078 96.7669 43.7563 96.2989 43.4053C95.8894 43.0543 95.3629 42.7325 94.7194 42.44C94.0759 42.089 93.3446 41.8257 92.5256 41.6502C91.9165 41.4628 91.3637 41.3505 90.8672 41.3131C90.7438 41.3039 90.6238 41.2992 90.5073 41.2992C90.1966 41.9489 89.8722 42.6122 89.5343 43.2891C89.1722 44.0142 88.7946 44.7549 88.4013 45.5113C88.2994 45.7151 88.1968 45.9189 88.0937 46.1227C87.9028 46.5 87.7097 46.8773 87.5145 47.2547C87.0889 48.0776 86.6532 48.9005 86.2075 49.7234C85.447 51.1274 84.6864 52.4729 83.9259 53.7599C83.2239 55.047 82.5804 56.217 81.9954 57.27C81.9843 57.2886 81.9733 57.3073 81.9622 57.3259C81.9577 57.3335 81.9531 57.3412 81.9486 57.3489C81.9301 57.3799 81.9117 57.4109 81.8933 57.4418C80.8771 59.1503 79.9095 60.7157 78.9907 62.1378C78.5036 62.8918 78.0302 63.6056 77.5705 64.2791C77.564 64.2886 77.5575 64.2981 77.551 64.3076C76.2277 66.2446 75.0181 67.8476 73.9222 69.1165C73.6286 69.4488 73.3395 69.7622 73.055 70.0568C71.8866 71.2665 70.7957 72.1576 69.7823 72.7301C69.1746 73.0734 68.5948 73.3021 68.0429 73.4163C67.2239 73.1238 66.8144 72.4218 66.8144 71.3103C66.8144 68.6192 67.4579 65.7234 68.7449 62.6229C70.0319 59.5223 71.6699 56.6265 73.659 53.9355C75.7065 51.1859 77.9588 48.8459 80.4159 46.9153C81.9568 45.7327 83.4649 44.8465 84.94 44.2566C85.1215 44.184 85.3026 44.1159 85.4832 44.0522C85.5055 44.0444 85.5279 44.0365 85.5503 44.0288C86.2746 43.7778 86.991 43.5992 87.6992 43.493C87.693 43.4367 87.6844 43.3794 87.6735 43.3212C87.5821 42.8342 87.3275 42.2772 86.9095 41.6502C86.7942 41.4628 86.6717 41.2772 86.5422 41.0934C86.3159 40.7721 86.0679 40.4563 85.7982 40.146C85.5958 39.9131 85.3812 39.6832 85.1544 39.4564C84.5109 38.7544 83.8089 38.1402 83.0484 37.6136C82.3464 37.0871 81.7029 36.7361 81.1179 36.5606C78.7193 36.6776 76.233 37.7892 73.659 39.8952ZM81.3795 50.8696C79.6875 52.3621 78.0917 54.1055 76.5962 56.1129C74.7854 58.5635 73.2949 61.1987 72.1218 64.0246C71.7351 64.9563 71.4214 65.8486 71.1755 66.703M71.1755 66.703C73.1784 64.3787 75.7244 60.6698 78.8245 55.4487C79.3974 54.4173 80.0278 53.2709 80.7161 52.0091L80.7461 51.954L80.7781 51.8999C80.9784 51.5609 81.1789 51.2175 81.3795 50.8696"
        fill="white" />
    <path fill-rule="evenodd" clip-rule="evenodd"
        d="M61.3915 30.2747C61.4529 29.6613 61.4835 29.0363 61.4835 28.3995C61.4835 28.0731 61.4749 27.7513 61.4578 27.4342C61.2866 24.268 60.2609 21.5668 58.3807 19.3305C57.5806 18.379 56.6259 17.5117 55.5164 16.7285C51.5383 13.9205 46.0392 12.5164 39.0191 12.5164C36.2695 12.5164 33.3737 12.7212 30.3317 13.1307C27.3481 13.5402 24.4231 14.096 21.5565 14.798C18.69 15.5 16.0282 16.3482 13.5711 17.3428C11.1726 18.2788 9.21278 19.2733 7.69175 20.3263C7.75025 21.0283 7.92576 21.8181 8.21826 22.6956C8.56927 23.5731 8.97878 24.4506 9.44678 25.3282C9.70553 25.7307 9.96427 26.119 10.223 26.4932C10.313 26.6234 10.403 26.7518 10.493 26.8786C10.6708 27.129 10.8485 27.3727 11.0263 27.6097C11.6113 28.3117 12.1671 28.8382 12.6936 29.1892C13.9221 28.0192 15.8527 26.8199 18.4852 25.5914C19.4459 25.1218 20.4455 24.6716 21.484 24.2409C23.2915 23.4913 25.2169 22.8007 27.2604 22.1691C26.2437 23.5112 25.1563 25.1784 23.9982 27.1707C23.4904 28.0443 22.969 28.9804 22.434 29.979C20.679 33.2551 18.69 37.3794 16.4669 42.352C15.4139 44.6335 14.2731 47.2076 13.0446 50.0741C11.8746 52.9407 10.7046 55.8365 9.53454 58.7615C8.36451 61.6281 7.28224 64.3776 6.28773 67.0102C5.35171 69.5842 4.59119 71.7488 4.00618 73.5038C5.93672 76.6629 8.59852 79.0907 11.9916 80.7872C15.4431 82.5422 19.4505 83.4197 24.0136 83.4197C28.2256 83.4197 32.35 82.6885 36.3865 81.226C40.4231 79.7634 44.0209 77.8622 47.18 75.5221C50.339 73.1236 52.8546 70.4033 54.7266 67.3612C56.6572 64.2606 57.6224 61.1308 57.6224 57.9718C57.6224 55.3392 56.9497 52.9407 55.6041 50.7761C55.0938 49.8946 54.5098 49.0682 53.8522 48.297C53.6734 48.0874 53.4892 47.8818 53.2996 47.6803C52.4277 46.754 51.4409 45.9139 50.339 45.16C50.5018 45.0717 50.663 44.9824 50.8225 44.892C51.8291 44.3218 52.771 43.7101 53.6481 43.057C55.5793 41.6189 57.1966 39.9799 58.5 38.1399C60.1398 35.7766 61.1036 33.1549 61.3915 30.2747ZM57.7759 29.665C57.885 29.2494 57.9628 28.8276 58.0093 28.3995C58.0439 28.0812 58.0612 27.7594 58.0612 27.4342C58.0612 25.0857 57.2837 23.2282 55.7287 21.8618C55.4245 21.5944 55.0904 21.3459 54.7266 21.1161C52.5036 19.6536 49.286 18.9223 45.0739 18.9223C43.8454 18.9223 42.5292 19.01 41.1251 19.1856C41.0189 19.1948 40.9121 19.2046 40.8048 19.2149C40.784 19.2169 40.7632 19.2189 40.7423 19.221C40.1353 19.2805 39.5108 19.3574 38.8688 19.4518C38.2062 19.5492 37.525 19.6652 36.8253 19.7998C37.0593 20.0338 37.2348 20.2971 37.3518 20.5896C37.5273 20.8236 37.6736 21.0868 37.7906 21.3793C37.6285 21.5954 37.4554 21.8419 37.2713 22.1188C36.8569 22.7419 36.3865 23.5192 35.86 24.4506C35.0995 25.7962 34.2512 27.3757 33.3152 29.1892C32.3792 30.9443 31.3847 32.9041 30.3317 35.0686C29.9309 35.9409 29.5254 36.8227 29.1151 37.714C28.5073 39.0344 27.889 40.3756 27.2604 41.7377C28.2549 41.5037 29.4542 41.3282 30.8582 41.2112C31.0948 41.1828 31.3307 41.1567 31.5658 41.1329C32.7838 41.0096 33.9812 40.948 35.158 40.948C35.9185 40.948 36.6498 40.9772 37.3518 41.0357C38.1123 41.0942 38.8436 41.182 39.5456 41.299C42.3536 40.831 44.8692 40.1582 47.0922 39.2807C49.3738 38.3447 51.3336 37.2916 52.9716 36.1216C54.6096 34.8931 55.8674 33.5476 56.7449 32.085C57.2139 31.3034 57.5575 30.4967 57.7759 29.665ZM50.8115 33.1712C52.1269 32.1792 53.024 31.18 53.6097 30.2039C54.1609 29.2851 54.4049 28.3815 54.4049 27.4342C54.4049 25.7782 53.8527 24.8886 52.7742 24.2075L52.7455 24.1893L52.7171 24.1706C51.3451 23.268 48.9536 22.5786 45.0739 22.5786C44.0177 22.5786 42.8543 22.6542 41.5786 22.8136L41.5104 22.8222L41.4419 22.8281C41.3823 22.8333 41.3224 22.8387 41.2623 22.8443L40.7156 23.5731C40.3285 24.0893 39.7749 24.955 39.0431 26.2498C38.3112 27.5446 37.4854 29.0816 36.5643 30.8662L36.553 30.8881L36.5414 30.9099C35.6357 32.608 34.6677 34.5145 33.6371 36.632C33.5296 36.8661 33.4216 37.101 33.3133 37.3365C33.9316 37.3067 34.5465 37.2916 35.158 37.2916C36.0078 37.2916 36.8367 37.3242 37.6435 37.391C38.2779 37.4401 38.9004 37.5076 39.5106 37.5943C41.8651 37.1702 43.9312 36.5956 45.7272 35.8886C47.776 35.0464 49.4582 34.133 50.8115 33.1712ZM23.3809 50.5808C23.904 49.3976 24.4367 48.205 24.9788 47.0028C25.8852 48.0225 26.8739 48.7954 27.9449 49.3214C27.9799 49.3386 28.015 49.3555 28.0501 49.3721C28.6351 49.4891 29.1324 49.5476 29.5419 49.5476H31.4724C37.01 49.5476 42.0018 48.6744 46.4478 46.9278C46.6048 46.8662 46.7611 46.8034 46.9167 46.7396C47.5181 47.0455 48.0652 47.3867 48.5581 47.763C49.5368 48.5103 50.3018 49.3963 50.8529 50.4212C51.5634 51.7422 51.9186 53.2938 51.9186 55.076C51.9186 57.767 51.0996 60.3411 49.4615 62.7981C47.8235 65.2552 45.6297 67.449 42.8802 69.3795C40.1306 71.2515 36.9423 72.7433 33.3152 73.8548C29.6882 74.9663 25.8856 75.5221 21.9075 75.5221C20.211 75.5221 18.7777 75.4051 17.6077 75.1711C16.4962 74.9371 15.5309 74.5861 14.7119 74.1181C14.7704 73.2991 15.0921 71.9828 15.6771 70.1693C16.2622 68.3557 17.0227 66.2204 17.9587 63.7634C18.8947 61.3063 19.9477 58.6445 21.1178 55.778C21.8513 54.0664 22.6057 52.334 23.3809 50.5808ZM26.4581 52.6637C25.7862 54.1886 25.1305 55.697 24.491 57.1891C23.3347 60.0223 22.2965 62.6473 21.3755 65.065C20.4542 67.4833 19.7168 69.5562 19.1569 71.2918C19.1111 71.4337 19.0678 71.5702 19.0267 71.7016C19.7927 71.8047 20.7457 71.8658 21.9075 71.8658C25.5402 71.8658 28.9806 71.359 32.2439 70.359C35.5587 69.3432 38.3982 68.0042 40.8008 66.3719C43.2195 64.6702 45.0687 62.7958 46.4193 60.77C47.6975 58.8526 48.2623 56.9753 48.2623 55.076C48.2623 53.6804 47.9653 52.698 47.5329 51.9772C47.2895 51.5716 46.9605 51.1774 46.5107 50.8052C41.9172 52.4217 36.891 53.2039 31.4724 53.2039H29.5419C28.8098 53.2039 28.0575 53.1023 27.3331 52.9574L26.8917 52.8692L26.4849 52.6765C26.476 52.6722 26.467 52.668 26.4581 52.6637ZM56.348 45.5959C58.3408 44.0397 60.061 42.2618 61.4836 40.2533L61.4938 40.2389L61.5039 40.2243C63.9352 36.7204 65.1398 32.7403 65.1398 28.3995C65.1398 22.2689 62.5978 17.2517 57.6249 13.7414C52.8121 10.3441 46.4746 8.86011 39.0191 8.86011C36.0889 8.86011 33.0293 9.07825 29.8439 9.50704L29.8345 9.50833C26.7282 9.93469 23.6787 10.5139 20.6868 11.2466C17.6763 11.9839 14.852 12.8812 12.2207 13.9449C9.66067 14.9453 7.43193 16.0592 5.61054 17.3201L3.87251 18.5234L4.04806 20.63C4.13691 21.6961 4.39189 22.7788 4.74958 23.8518L4.78355 23.9538L4.82345 24.0535C5.22651 25.0612 5.69307 26.0596 6.22062 27.0488L6.29067 27.1801L6.37117 27.3053C6.94017 28.1905 7.51663 29.024 8.10126 29.8035L8.15747 29.8785L8.21746 29.9504C8.93698 30.8139 9.74814 31.6199 10.6654 32.2315L13.0981 33.8532L15.2152 31.8369C15.8365 31.2451 16.877 30.5172 18.4568 29.684C16.8451 32.792 15.0717 36.5149 13.1379 40.8397C12.0706 43.1529 10.9191 45.7517 9.68392 48.6338L9.67141 48.663L9.65941 48.6924C8.48766 51.5632 7.316 54.463 6.14442 57.3919C4.96534 60.2809 3.87285 63.0564 2.86734 65.718L2.85931 65.7393L2.85154 65.7607C1.90905 68.3525 1.13657 70.5504 0.537496 72.3476L0 73.9601L0.886313 75.4104C3.18108 79.1655 6.36007 82.0567 10.3445 84.0516C14.3911 86.1069 18.9811 87.0761 24.0136 87.0761C28.6586 87.0761 33.204 86.268 37.6321 84.6636C41.971 83.0915 45.8879 81.0293 49.3563 78.4602L49.3737 78.4473L49.391 78.4342C52.8676 75.7945 55.7025 72.7493 57.8356 69.2854C58.2702 68.587 58.666 67.881 59.0218 67.1676C59.1345 64.2398 59.7972 61.1745 61.0098 57.9718C61.043 57.8841 61.0766 57.7964 61.1106 57.7085C61.1622 57.575 61.2144 57.4419 61.2671 57.3091C61.1607 54.2872 60.3223 51.4594 58.7399 48.8951C58.0491 47.7094 57.2503 46.6095 56.348 45.5959Z"
        fill="white" />
</svg>
    