<svg width="373" height="265" viewBox="0 0 373 265" fill="none" xmlns="http://www.w3.org/2000/svg">
    <path
        d="M36.6875 44.1562H15.2656V72H1.48438V3.75H39.2656V15.2344H15.2656V32.7188H36.6875V44.1562ZM70.2969 34.0781L65.8906 33.7031C62.2656 33.7031 59.8125 35.2969 58.5312 38.4844V72H45.2188V21.2812H57.7344L58.1094 26.7656C60.2031 22.4844 63.0938 20.3438 66.7812 20.3438C68.2812 20.3438 69.5 20.5469 70.4375 20.9531L70.2969 34.0781ZM96.6875 72.9375C89.875 72.9375 84.5625 70.9062 80.75 66.8438C76.9375 62.7812 75.0312 56.9688 75.0312 49.4062V45.375C75.0312 37.375 76.7812 31.2031 80.2812 26.8594C83.7812 22.5156 88.7969 20.3438 95.3281 20.3438C101.703 20.3438 106.5 22.3906 109.719 26.4844C112.938 30.5469 114.578 36.5781 114.641 44.5781V51.0938H88.25C88.4375 54.8438 89.2656 57.5938 90.7344 59.3438C92.2031 61.0625 94.4688 61.9219 97.5312 61.9219C101.969 61.9219 105.672 60.4062 108.641 57.375L113.844 65.3906C112.219 67.6406 109.859 69.4688 106.766 70.875C103.672 72.25 100.312 72.9375 96.6875 72.9375ZM88.3438 41.8125H101.609V40.5938C101.547 37.5625 101.047 35.2656 100.109 33.7031C99.1719 32.1406 97.5469 31.3594 95.2344 31.3594C92.9219 31.3594 91.2344 32.1875 90.1719 33.8438C89.1406 35.5 88.5312 38.1562 88.3438 41.8125ZM144.594 58.4062C144.594 57.2812 144.047 56.25 142.953 55.3125C141.891 54.3438 139.5 53.0469 135.781 51.4219C130.312 49.2031 126.547 46.9062 124.484 44.5312C122.453 42.1562 121.438 39.2031 121.438 35.6719C121.438 31.2344 123.031 27.5781 126.219 24.7031C129.438 21.7969 133.688 20.3438 138.969 20.3438C144.531 20.3438 148.984 21.7813 152.328 24.6562C155.672 27.5312 157.344 31.3906 157.344 36.2344H144.078C144.078 32.1094 142.359 30.0469 138.922 30.0469C137.516 30.0469 136.359 30.4844 135.453 31.3594C134.547 32.2344 134.094 33.4531 134.094 35.0156C134.094 36.1406 134.594 37.1406 135.594 38.0156C136.594 38.8594 138.953 40.0781 142.672 41.6719C148.078 43.6719 151.891 45.9062 154.109 48.375C156.359 50.8125 157.484 53.9844 157.484 57.8906C157.484 62.4219 155.781 66.0625 152.375 68.8125C148.969 71.5625 144.5 72.9375 138.969 72.9375C135.25 72.9375 131.969 72.2188 129.125 70.7812C126.281 69.3125 124.047 67.2812 122.422 64.6875C120.828 62.0938 120.031 59.2969 120.031 56.2969H132.641C132.703 58.6094 133.234 60.3438 134.234 61.5C135.266 62.6562 136.938 63.2344 139.25 63.2344C142.812 63.2344 144.594 61.625 144.594 58.4062ZM178.672 25.7344C181.547 22.1406 185.078 20.3438 189.266 20.3438C193.891 20.3438 197.406 21.9688 199.812 25.2188C202.219 28.4688 203.438 33.3125 203.469 39.75V72H190.156V39.8906C190.156 36.9219 189.688 34.7812 188.75 33.4688C187.844 32.125 186.359 31.4531 184.297 31.4531C181.891 31.4531 180.016 32.5625 178.672 34.7812V72H165.406V0H178.672V25.7344ZM226.906 72H213.594V0H226.906V72ZM253.438 49.9219L260.188 21.2812H274.344L257.656 79.5938C255.156 88.1875 250.453 92.4844 243.547 92.4844C241.953 92.4844 240.141 92.1875 238.109 91.5938V81.2344L239.656 81.2812C241.719 81.2812 243.266 80.875 244.297 80.0625C245.359 79.2812 246.156 77.9062 246.688 75.9375L247.719 72.5156L233.094 21.2812H247.344L253.438 49.9219ZM1.48438 168V99.75H22.5781C29.7031 99.75 35.1094 101.344 38.7969 104.531C42.5156 107.688 44.375 112.328 44.375 118.453C44.375 121.922 43.6094 124.906 42.0781 127.406C40.5469 129.906 38.4531 131.734 35.7969 132.891C38.8594 133.766 41.2188 135.531 42.875 138.188C44.5312 140.812 45.3594 144.062 45.3594 147.938C45.3594 154.562 43.5312 159.562 39.875 162.938C36.25 166.312 30.9844 168 24.0781 168H1.48438ZM15.2656 138.328V156.562H24.0781C26.5469 156.562 28.4219 155.797 29.7031 154.266C30.9844 152.734 31.625 150.562 31.625 147.75C31.625 141.625 29.4062 138.484 24.9688 138.328H15.2656ZM15.2656 128.297H22.4375C27.8438 128.297 30.5469 125.5 30.5469 119.906C30.5469 116.812 29.9219 114.594 28.6719 113.25C27.4219 111.906 25.3906 111.234 22.5781 111.234H15.2656V128.297ZM78.8281 168C78.4531 167.219 78.0781 165.906 77.7031 164.062C75.3281 167.312 72.1094 168.938 68.0469 168.938C63.7969 168.938 60.2656 167.531 57.4531 164.719C54.6719 161.906 53.2812 158.266 53.2812 153.797C53.2812 148.484 54.9688 144.375 58.3438 141.469C61.75 138.562 66.6406 137.078 73.0156 137.016H77.0469V132.938C77.0469 130.656 76.6562 129.047 75.875 128.109C75.0938 127.172 73.9531 126.703 72.4531 126.703C69.1406 126.703 67.4844 128.641 67.4844 132.516H54.2188C54.2188 127.828 55.9688 123.969 59.4688 120.938C63 117.875 67.4531 116.344 72.8281 116.344C78.3906 116.344 82.6875 117.797 85.7188 120.703C88.7812 123.578 90.3125 127.703 90.3125 133.078V156.938C90.375 161.312 91 164.734 92.1875 167.203V168H78.8281ZM71 158.531C72.4688 158.531 73.7188 158.234 74.75 157.641C75.7812 157.047 76.5469 156.344 77.0469 155.531V144.984H73.8594C71.6094 144.984 69.8281 145.703 68.5156 147.141C67.2344 148.578 66.5938 150.5 66.5938 152.906C66.5938 156.656 68.0625 158.531 71 158.531ZM116.75 148.453L113.188 152.438V168H99.9219V96H113.188V134.906L114.828 132.469L124.016 117.281H139.812L125.094 138.188L141.219 168H126.031L116.75 148.453ZM165.406 168.938C158.594 168.938 153.281 166.906 149.469 162.844C145.656 158.781 143.75 152.969 143.75 145.406V141.375C143.75 133.375 145.5 127.203 149 122.859C152.5 118.516 157.516 116.344 164.047 116.344C170.422 116.344 175.219 118.391 178.438 122.484C181.656 126.547 183.297 132.578 183.359 140.578V147.094H156.969C157.156 150.844 157.984 153.594 159.453 155.344C160.922 157.062 163.188 157.922 166.25 157.922C170.688 157.922 174.391 156.406 177.359 153.375L182.562 161.391C180.938 163.641 178.578 165.469 175.484 166.875C172.391 168.25 169.031 168.938 165.406 168.938ZM157.062 137.812H170.328V136.594C170.266 133.562 169.766 131.266 168.828 129.703C167.891 128.141 166.266 127.359 163.953 127.359C161.641 127.359 159.953 128.188 158.891 129.844C157.859 131.5 157.25 134.156 157.062 137.812ZM189.078 141.094C189.078 132.781 190.484 126.578 193.297 122.484C196.109 118.391 200.203 116.344 205.578 116.344C209.484 116.344 212.734 118.031 215.328 121.406V96H228.688V168H216.641L216.031 162.844C213.312 166.906 209.812 168.938 205.531 168.938C200.219 168.938 196.156 166.906 193.344 162.844C190.562 158.781 189.141 152.812 189.078 144.938V141.094ZM202.391 144.422C202.391 149.422 202.922 152.922 203.984 154.922C205.047 156.891 206.844 157.875 209.375 157.875C212 157.875 213.984 156.703 215.328 154.359V131.203C214.016 128.703 212.047 127.453 209.422 127.453C206.984 127.453 205.203 128.438 204.078 130.406C202.953 132.375 202.391 135.875 202.391 140.906V144.422ZM47.8906 256.266C45.2344 259.141 41.9688 261.312 38.0938 262.781C34.25 264.219 30.0312 264.938 25.4375 264.938C17.5938 264.938 11.5 262.516 7.15625 257.672C2.8125 252.797 0.578125 245.719 0.453125 236.438V224.156C0.453125 214.75 2.5 207.516 6.59375 202.453C10.7188 197.359 16.7188 194.812 24.5938 194.812C32 194.812 37.5781 196.641 41.3281 200.297C45.1094 203.953 47.2969 209.688 47.8906 217.5H34.4844C34.1094 213.156 33.2031 210.203 31.7656 208.641C30.3281 207.047 28.0781 206.25 25.0156 206.25C21.2969 206.25 18.5938 207.609 16.9062 210.328C15.2188 213.047 14.3438 217.375 14.2812 223.312V235.688C14.2812 241.906 15.2031 246.438 17.0469 249.281C18.9219 252.094 21.9844 253.5 26.2344 253.5C28.9531 253.5 31.1562 252.953 32.8438 251.859L34.0625 251.016V238.5H24.4062V228.094H47.8906V256.266ZM55.4375 237C55.4375 229.312 57.25 223.281 60.875 218.906C64.5 214.531 69.5156 212.344 75.9219 212.344C82.3906 212.344 87.4375 214.531 91.0625 218.906C94.6875 223.281 96.5 229.344 96.5 237.094V240.328C96.5 248.047 94.7031 254.078 91.1094 258.422C87.5156 262.766 82.4844 264.938 76.0156 264.938C69.5156 264.938 64.4531 262.766 60.8281 258.422C57.2344 254.047 55.4375 247.984 55.4375 240.234V237ZM68.75 240.328C68.75 249.391 71.1719 253.922 76.0156 253.922C80.4844 253.922 82.8906 250.141 83.2344 242.578L83.2812 237C83.2812 232.375 82.6406 228.953 81.3594 226.734C80.0781 224.484 78.2656 223.359 75.9219 223.359C73.6719 223.359 71.9062 224.484 70.625 226.734C69.375 228.953 68.75 232.375 68.75 237V240.328ZM103.25 237C103.25 229.312 105.062 223.281 108.688 218.906C112.312 214.531 117.328 212.344 123.734 212.344C130.203 212.344 135.25 214.531 138.875 218.906C142.5 223.281 144.312 229.344 144.312 237.094V240.328C144.312 248.047 142.516 254.078 138.922 258.422C135.328 262.766 130.297 264.938 123.828 264.938C117.328 264.938 112.266 262.766 108.641 258.422C105.047 254.047 103.25 247.984 103.25 240.234V237ZM116.562 240.328C116.562 249.391 118.984 253.922 123.828 253.922C128.297 253.922 130.703 250.141 131.047 242.578L131.094 237C131.094 232.375 130.453 228.953 129.172 226.734C127.891 224.484 126.078 223.359 123.734 223.359C121.484 223.359 119.719 224.484 118.438 226.734C117.188 228.953 116.562 232.375 116.562 237V240.328ZM150.828 237.094C150.828 228.781 152.234 222.578 155.047 218.484C157.859 214.391 161.953 212.344 167.328 212.344C171.234 212.344 174.484 214.031 177.078 217.406V192H190.438V264H178.391L177.781 258.844C175.062 262.906 171.562 264.938 167.281 264.938C161.969 264.938 157.906 262.906 155.094 258.844C152.312 254.781 150.891 248.812 150.828 240.938V237.094ZM164.141 240.422C164.141 245.422 164.672 248.922 165.734 250.922C166.797 252.891 168.594 253.875 171.125 253.875C173.75 253.875 175.734 252.703 177.078 250.359V227.203C175.766 224.703 173.797 223.453 171.172 223.453C168.734 223.453 166.953 224.438 165.828 226.406C164.703 228.375 164.141 231.875 164.141 236.906V240.422ZM212.375 213.281L212.75 218.297C215.75 214.328 219.672 212.344 224.516 212.344C233.234 212.344 237.719 218.453 237.969 230.672V264H224.656V231.656C224.656 228.781 224.219 226.703 223.344 225.422C222.5 224.109 221 223.453 218.844 223.453C216.438 223.453 214.562 224.688 213.219 227.156V264H199.906V213.281H212.375ZM267.969 264.938C261.156 264.938 255.844 262.906 252.031 258.844C248.219 254.781 246.312 248.969 246.312 241.406V237.375C246.312 229.375 248.062 223.203 251.562 218.859C255.062 214.516 260.078 212.344 266.609 212.344C272.984 212.344 277.781 214.391 281 218.484C284.219 222.547 285.859 228.578 285.922 236.578V243.094H259.531C259.719 246.844 260.547 249.594 262.016 251.344C263.484 253.062 265.75 253.922 268.812 253.922C273.25 253.922 276.953 252.406 279.922 249.375L285.125 257.391C283.5 259.641 281.141 261.469 278.047 262.875C274.953 264.25 271.594 264.938 267.969 264.938ZM259.625 233.812H272.891V232.594C272.828 229.562 272.328 227.266 271.391 225.703C270.453 224.141 268.828 223.359 266.516 223.359C264.203 223.359 262.516 224.188 261.453 225.844C260.422 227.5 259.812 230.156 259.625 233.812ZM315.875 250.406C315.875 249.281 315.328 248.25 314.234 247.312C313.172 246.344 310.781 245.047 307.062 243.422C301.594 241.203 297.828 238.906 295.766 236.531C293.734 234.156 292.719 231.203 292.719 227.672C292.719 223.234 294.312 219.578 297.5 216.703C300.719 213.797 304.969 212.344 310.25 212.344C315.812 212.344 320.266 213.781 323.609 216.656C326.953 219.531 328.625 223.391 328.625 228.234H315.359C315.359 224.109 313.641 222.047 310.203 222.047C308.797 222.047 307.641 222.484 306.734 223.359C305.828 224.234 305.375 225.453 305.375 227.016C305.375 228.141 305.875 229.141 306.875 230.016C307.875 230.859 310.234 232.078 313.953 233.672C319.359 235.672 323.172 237.906 325.391 240.375C327.641 242.812 328.766 245.984 328.766 249.891C328.766 254.422 327.062 258.062 323.656 260.812C320.25 263.562 315.781 264.938 310.25 264.938C306.531 264.938 303.25 264.219 300.406 262.781C297.562 261.312 295.328 259.281 293.703 256.688C292.109 254.094 291.312 251.297 291.312 248.297H303.922C303.984 250.609 304.516 252.344 305.516 253.5C306.547 254.656 308.219 255.234 310.531 255.234C314.094 255.234 315.875 253.625 315.875 250.406ZM359.469 250.406C359.469 249.281 358.922 248.25 357.828 247.312C356.766 246.344 354.375 245.047 350.656 243.422C345.188 241.203 341.422 238.906 339.359 236.531C337.328 234.156 336.312 231.203 336.312 227.672C336.312 223.234 337.906 219.578 341.094 216.703C344.312 213.797 348.562 212.344 353.844 212.344C359.406 212.344 363.859 213.781 367.203 216.656C370.547 219.531 372.219 223.391 372.219 228.234H358.953C358.953 224.109 357.234 222.047 353.797 222.047C352.391 222.047 351.234 222.484 350.328 223.359C349.422 224.234 348.969 225.453 348.969 227.016C348.969 228.141 349.469 229.141 350.469 230.016C351.469 230.859 353.828 232.078 357.547 233.672C362.953 235.672 366.766 237.906 368.984 240.375C371.234 242.812 372.359 245.984 372.359 249.891C372.359 254.422 370.656 258.062 367.25 260.812C363.844 263.562 359.375 264.938 353.844 264.938C350.125 264.938 346.844 264.219 344 262.781C341.156 261.312 338.922 259.281 337.297 256.688C335.703 254.094 334.906 251.297 334.906 248.297H347.516C347.578 250.609 348.109 252.344 349.109 253.5C350.141 254.656 351.812 255.234 354.125 255.234C357.688 255.234 359.469 253.625 359.469 250.406Z"
        fill="white" />
</svg>
    