<svg width="30" height="31" viewBox="0 0 30 31" fill="none" xmlns="http://www.w3.org/2000/svg">
    <path
        d="M29.0625 6.50123C28.0075 6.95964 26.8912 7.26165 25.749 7.39772C26.9494 6.69481 27.8521 5.57812 28.2879 4.25709C27.153 4.92072 25.9134 5.38635 24.6223 5.63404C24.0786 5.06424 23.4247 4.61094 22.7004 4.30171C21.976 3.99247 21.1964 3.83376 20.4088 3.83522C17.2201 3.83522 14.6396 6.37818 14.6396 9.51295C14.6374 9.94898 14.6874 10.3837 14.7885 10.8079C12.502 10.7007 10.263 10.1174 8.21483 9.09533C6.16666 8.07326 4.35439 6.63492 2.89395 4.87232C2.38159 5.73607 2.11062 6.72157 2.10938 7.72584C2.10938 9.69459 3.13652 11.4348 4.6875 12.4544C3.76859 12.4325 2.86851 12.1893 2.06367 11.7454V11.8157C2.06367 14.5696 4.05586 16.8606 6.69258 17.3821C6.19675 17.5143 5.6858 17.5812 5.17266 17.5813C4.80854 17.5819 4.44526 17.5466 4.08809 17.4758C4.82109 19.7317 6.95449 21.3723 9.48164 21.4192C7.42815 23.0018 4.907 23.8571 2.31445 23.8508C1.85427 23.8502 1.39451 23.8228 0.9375 23.7688C3.57491 25.4529 6.64069 26.3437 9.76992 26.3352C20.3965 26.3352 26.202 17.6809 26.202 10.1751C26.202 9.92897 26.1955 9.68287 26.1838 9.44264C27.3106 8.64111 28.2854 7.64505 29.0625 6.50123Z"
        fill="#DFE4EB" />
</svg>
    