<svg width="30" height="31" viewBox="0 0 30 31" fill="none" xmlns="http://www.w3.org/2000/svg">
    <path
        d="M15.0029 1.96021C7.75488 1.96021 1.87793 7.83716 1.87793 15.0852C1.87793 20.4583 5.1123 25.0754 9.73535 27.1086C9.70019 26.1946 9.72949 25.093 9.96387 24.0969C10.2158 23.0305 11.6514 16.9426 11.6514 16.9426C11.6514 16.9426 11.2295 16.1047 11.2295 14.8684C11.2295 12.9231 12.3545 11.47 13.7607 11.47C14.9561 11.47 15.5303 12.3665 15.5303 13.4387C15.5303 14.6399 14.7627 16.4329 14.3701 18.0969C14.042 19.4915 15.0674 20.6223 16.4443 20.6223C18.9287 20.6223 20.6045 17.429 20.6045 13.6438C20.6045 10.7668 18.665 8.61646 15.1436 8.61646C11.165 8.61646 8.68066 11.5872 8.68066 14.9036C8.68066 16.0461 9.02051 16.8547 9.54785 17.4758C9.78809 17.7629 9.82324 17.8801 9.73535 18.2083C9.6709 18.4485 9.53027 19.0286 9.46582 19.2629C9.37793 19.5969 9.1084 19.7141 8.80957 19.5911C6.97559 18.8411 6.12012 16.8372 6.12012 14.5754C6.12012 10.8489 9.2666 6.37817 15.501 6.37817C20.5107 6.37817 23.8096 10.0051 23.8096 13.8958C23.8096 19.0461 20.9443 22.8899 16.7256 22.8899C15.3076 22.8899 13.9775 22.1223 13.5205 21.2551C13.5205 21.2551 12.7588 24.2786 12.5947 24.8645C12.3193 25.8782 11.7744 26.886 11.2764 27.677C12.4845 28.0334 13.7375 28.2149 14.9971 28.2161C22.2451 28.2161 28.1221 22.3391 28.1221 15.0911C28.1221 7.84302 22.251 1.96021 15.0029 1.96021Z"
        fill="#DFE4EB" />
</svg>
    