<svg width="30" height="31" viewBox="0 0 30 31" fill="none" xmlns="http://www.w3.org/2000/svg">
    <path
        d="M20.4686 4.14751C21.9177 4.15184 23.3063 4.72944 24.331 5.75416C25.3558 6.77889 25.9334 8.16748 25.9377 9.61665V20.5538C25.9334 22.0029 25.3558 23.3915 24.331 24.4162C23.3063 25.441 21.9177 26.0186 20.4686 26.0229H9.53145C8.08227 26.0186 6.69369 25.441 5.66896 24.4162C4.64423 23.3915 4.06663 22.0029 4.0623 20.5538V9.61665C4.06663 8.16748 4.64423 6.77889 5.66896 5.75416C6.69369 4.72944 8.08227 4.15184 9.53145 4.14751H20.4686ZM20.4686 1.96021H9.53145C5.32031 1.96021 1.875 5.40552 1.875 9.61665V20.5538C1.875 24.7649 5.32031 28.2102 9.53145 28.2102H20.4686C24.6797 28.2102 28.125 24.7649 28.125 20.5538V9.61665C28.125 5.40552 24.6797 1.96021 20.4686 1.96021Z"
        fill="#DFE4EB" />
    <path
        d="M22.1092 9.6167C21.7847 9.6167 21.4675 9.52048 21.1977 9.3402C20.9279 9.15993 20.7176 8.9037 20.5934 8.60391C20.4693 8.30413 20.4368 7.97425 20.5001 7.656C20.5634 7.33775 20.7196 7.04542 20.9491 6.81598C21.1785 6.58653 21.4709 6.43028 21.7891 6.36697C22.1074 6.30367 22.4372 6.33616 22.737 6.46034C23.0368 6.58451 23.293 6.79479 23.4733 7.06459C23.6536 7.33439 23.7498 7.65159 23.7498 7.97607C23.7503 8.19165 23.7081 8.4052 23.6259 8.60446C23.5436 8.80372 23.4228 8.98477 23.2703 9.13721C23.1179 9.28964 22.9368 9.41047 22.7376 9.49276C22.5383 9.57504 22.3248 9.61716 22.1092 9.6167ZM15 10.7101C15.8653 10.7101 16.7112 10.9667 17.4307 11.4474C18.1502 11.9282 18.711 12.6115 19.0422 13.4109C19.3733 14.2104 19.4599 15.0901 19.2911 15.9388C19.1223 16.7875 18.7056 17.5671 18.0937 18.179C17.4819 18.7909 16.7023 19.2076 15.8536 19.3764C15.0049 19.5452 14.1252 19.4586 13.3257 19.1274C12.5262 18.7963 11.8429 18.2355 11.3622 17.516C10.8814 16.7965 10.6248 15.9506 10.6248 15.0853C10.626 13.9253 11.0874 12.8131 11.9076 11.9929C12.7279 11.1727 13.84 10.7113 15 10.7101ZM15 8.52275C13.7021 8.52275 12.4333 8.90764 11.3541 9.62873C10.2749 10.3498 9.43374 11.3748 8.93704 12.5739C8.44034 13.773 8.31038 15.0925 8.5636 16.3655C8.81682 17.6385 9.44183 18.8079 10.3596 19.7256C11.2774 20.6434 12.4467 21.2684 13.7197 21.5217C14.9927 21.7749 16.3122 21.6449 17.5114 21.1482C18.7105 20.6515 19.7354 19.8104 20.4565 18.7312C21.1776 17.652 21.5625 16.3832 21.5625 15.0853C21.5625 13.3448 20.8711 11.6756 19.6404 10.4449C18.4097 9.21416 16.7405 8.52275 15 8.52275Z"
        fill="#DFE4EB" />
</svg>
    