<svg width="30" height="31" viewBox="0 0 30 31" fill="none" xmlns="http://www.w3.org/2000/svg">
    <path
        d="M20.1621 13.7727C18.4688 13.7727 18.2344 15.4602 18.2344 15.4602H21.832C21.832 15.4602 21.8555 13.7727 20.1621 13.7727ZM12 15.4602H8.8125V18.3899H11.8418C12.2988 18.3782 13.1543 18.2493 13.1543 16.9661C13.1543 15.4426 12 15.4602 12 15.4602Z"
        fill="#DFE4EB" />
    <path
        d="M15 1.96021C7.75195 1.96021 1.875 7.83716 1.875 15.0852C1.875 22.3333 7.75195 28.2102 15 28.2102C22.248 28.2102 28.125 22.3333 28.125 15.0852C28.125 7.83716 22.248 1.96021 15 1.96021ZM17.7656 10.0227H22.2832V11.3704H17.7656V10.0227ZM15.4805 17.1008C15.4805 20.4407 12 20.3352 12 20.3352H6.30469V9.37817H12C13.7344 9.37817 15.0996 10.3333 15.0996 12.2961C15.0996 14.259 13.4297 14.3821 13.4297 14.3821C15.6328 14.3821 15.4805 17.1008 15.4805 17.1008ZM23.9297 16.9192H18.252C18.252 18.9524 20.1797 18.8235 20.1797 18.8235C22.002 18.8235 21.9375 17.6458 21.9375 17.6458H23.8652C23.8652 20.7747 20.1152 20.5579 20.1152 20.5579C15.6211 20.5579 15.9082 16.3684 15.9082 16.3684C15.9082 16.3684 15.9023 12.1614 20.1152 12.1614C24.5508 12.1672 23.9297 16.9192 23.9297 16.9192Z"
        fill="#DFE4EB" />
    <path
        d="M12.7734 12.4661C12.7734 11.3293 12 11.3293 12 11.3293H8.8125V13.7727H11.8008C12.3164 13.7727 12.7734 13.6028 12.7734 12.4661Z"
        fill="#DFE4EB" />
</svg>
    